<?xml version="1.0" encoding="UTF-8"?>
<svg xmlns="http://www.w3.org/2000/svg" id="Layer_1" data-name="Layer 1" viewBox="0 0 24 24">
  <path d="m5.391,9.109c-.391-.391-.391-1.023,0-1.414L12.793.293c.391-.391,1.023-.391,1.414,0s.391,1.023,0,1.414l-7.402,7.402c-.195.195-.451.293-.707.293s-.512-.098-.707-.293Zm8.496,8.495c.195.195.451.293.707.293s.512-.098.707-.293l7.402-7.401c.391-.391.391-1.023,0-1.414-.391-.391-1.023-.391-1.414,0l-7.402,7.401c-.391.391-.391,1.023,0,1.414Zm-.522-3.555l5.871-5.871-4.414-4.414-5.871,5.871,1.5,1.5L.293,21.293c-.391.391-.391,1.023,0,1.414.195.195.451.293.707.293s.512-.098.707-.293l10.158-10.158,1.5,1.5Zm9.635,7.951h-.051c-.232-1.14-1.242-2-2.449-2h-8c-1.208,0-2.217.86-2.449,2h-.051c-.553,0-1,.447-1,1s.447,1,1,1h13c.553,0,1-.447,1-1s-.447-1-1-1Z"/>
</svg>
